<svg data-name="Ebene 1" xmlns="http://www.w3.org/2000/svg" viewBox="0 0 298.95 54.808"><path d="M185.207 51.484c2.256-1.179 7.806-4.771 8.109-6.7a436.206 436.206 0 0 0-7.223-11.961l-.274-.394.037-.886.286-.375c3.6-4.933 6.2-9.976 6.2-14.218 0-4.644-3.563-7.933-11.616-9.157a39.533 39.533 0 0 0-5.673-.4c-1.013 0-2.019.038-3.123.057-.992.033-2.076.071-3.327.09-.02 7.768-.274 13.1-.285 13.745v.057l-.038.556-.687.766-.563.09c-2.816.394-4.242.668-4.835 3.766a.243.243 0 0 1-.019.075 84.967 84.967 0 0 0-.691 10.82 65.677 65.677 0 0 0 .867 10.985c1.359.053 3.654.147 5.929.147 1.588 0 3.158-.038 4.351-.166.056-.432.091-.829.109-1.227a13.849 13.849 0 0 1 .579-3.45c.071-1.791 1.046-1.84 1.861-1.84 1.461 0 6.522 5.414 9.356 8.831.257.282.47.556.67.789zm-8.6-21.512a2.787 2.787 0 0 1-1.3-.312l-.4-.176-.455-.709v-.433c-.011-3.162-.011-5.891-.011-7.892 0-2.076 0-3.394.011-3.649v-.631l.728-.814.612-.053a8.886 8.886 0 0 1 1.232-.056c.483 0 1.1.018 1.84.075l.146.011.249.06.127.068a5.643 5.643 0 0 1 3.18 5.515c.002 4.569-3.466 8.996-5.957 8.996zm-40.5-4.682a20.541 20.541 0 0 0-3.991-12.1 2.161 2.161 0 0 0-.147-.176c-1.1-1.39-6.645-7.61-15.656-7.61a24.106 24.106 0 0 0-11.222 3.023 16.549 16.549 0 0 1 1.052 5.5 17.647 17.647 0 0 1-1.1 5.564 59.549 59.549 0 0 0-.488 1.573l-.034.127-.109.218-.075.09c-1.172 1.664-1.93 2.854-1.93 4.085 0 1.1.649 2.147 1.858 3.574a60.011 60.011 0 0 1 5.516 7.374l.266.447-.09.942-.364.375c-.019.019-.03.038-.049.056-.364.4-2.568 2.729-5.3 5.151a34.179 34.179 0 0 0 7.246 2.434 24.014 24.014 0 0 0 4.982.581 16.893 16.893 0 0 0 10.46-3.634c6.013-4.642 9.175-11.107 9.175-17.594zm-17.556 5.384c-3.525 1.9-6.431.631-7.73-1.517-1.573-2.568.521-7.189.521-7.189s2.027-3.886 4.57-3.7c4.688.343 8.26 9.391 2.639 12.406zm37.356-12.446l-.612.455-.181.375c-2.283 4.9-2.786 13.82-2.786 20.214 0 2.388.071 4.408.128 5.71-.578 0-1.28.015-2.114.015-1.862 0-4.355-.034-7.228-.143a85.851 85.851 0 0 0 .8-11.286 48.237 48.237 0 0 0-1.014-10.426c-.049-.18-.068-.289-.109-.394-.286-1.231-.608-2.444-2.636-2.658a35.137 35.137 0 0 0-6.12-14.544c6.991-.127 14.21-.158 19.9-.158 4.195 0 7.551.011 9.374.03.02.74.039 1.734.039 2.894a92.006 92.006 0 0 1-.433 9.285.538.538 0 0 1-.483.473c-.207 0-1.033-.019-2.118-.019-1.209 0-2.707.019-3.995.139zm-89.178-4.3c1.281 0 2.452.041 3.319.06v1.5c0 10.494-2.527 19.868-5.238 24.208A16.409 16.409 0 0 1 50.792 47.8c-4.423 0-8.47-2.091-9.394-6.788a31.671 31.671 0 0 1-.848-5.1c-.03-.323-.03-.611-.03-.848a4.035 4.035 0 0 1 .03-.687l.09-.721-.788-.956-.752-.018-3.95-.109-.8-7.374a7.224 7.224 0 0 0 1.063.075c3.848 0 4.43-2.369 4.7-5.439.038-.327.056-.669.109-1.067.018-1.821.109-3.138.165-3.975.886-.091 2.057-.109 3.3-.109 1.937 0 3.995.1 5.384.147a85.708 85.708 0 0 0-.65 9.5c0 1.033.041 2.027.109 2.944l.019.09.018.146.033.072c1.22 4.066 3.21 5.1 4.854 5.1 1.948 0 4.134-1.791 5.02-5.114a64.372 64.372 0 0 0 1.753-13.242 41.1 41.1 0 0 1 6.502-.402zm20.285 26.844l6.378 5.2a3.1 3.1 0 0 0 .432-.267c2.778-1.753 10.133-6.052 10.509-8.6-.868-1.194-3.574-4.967-4.933-6.826-.109-.146-.23-.292-.338-.454a6.31 6.31 0 0 1-1.72-3.886 6.388 6.388 0 0 1 1.735-4.047 10.679 10.679 0 0 0 2.714-7.238c0-6.469-5.553-13.174-18.156-13.174a42.708 42.708 0 0 0-5.274.345c-2.456.184-7.318.454-9.72.6l-.109 5.523 4.9.109h.649l.8.8.018.631v.067c.019.511.128 3.345.128 6.881 0 1.957-.038 4.123-.128 6.222-.323 10.891-2.166 15.854-4.115 18.925a20.092 20.092 0 0 1-1.359 1.84l-.075 2.313c2.688.2 8.684.62 14.2 1.014l1.066-5.129.2-.923 1.468-.522zM85.242 25.4l-.375-.09-.165-.09a.678.678 0 0 0-.18-.071 2.572 2.572 0 0 1-1.9-2.043 16.989 16.989 0 0 1-.341-3.646 16.413 16.413 0 0 1 .777-5.346 3.532 3.532 0 0 1 3.345-2.8 4.538 4.538 0 0 1 3.646 2.369c.9 1.318 1.246 3.626 1.246 5.8a20.831 20.831 0 0 1-.432 4.422 1.588 1.588 0 0 1-.308.578 2.1 2.1 0 0 1-1.2.65 23.839 23.839 0 0 1-3.939.27h-.174zm200-.995c1.182-.447 2.64-1.048 4.756-1.982a12.363 12.363 0 0 0 7.476-10.748 5.618 5.618 0 0 0-3.409-5.515c-4.471-1.86-10.249-2.36-15.307-2.36a86.7 86.7 0 0 0-11 .725 55.681 55.681 0 0 0-2.276 6.953v.322a44.48 44.48 0 0 0 1.195 7.711 104.981 104.981 0 0 1 2.568 21.877v.162l-.079.29-.048.146a3.7 3.7 0 0 1-.522.759c1.674-.019 3.375-.038 4.062-.109a3.342 3.342 0 0 0 2.219-4.175 24.123 24.123 0 0 1-.357-3.811c0-4.588 1.971-6.071 7.531-8.853.987-.507 1.93-.883 3.188-1.397zm-9.717-.849h-.127l-.248-.03-.127-.061a5.39 5.39 0 0 1-3.668-5.414 9.312 9.312 0 0 1 .545-3.023c1.313-3.863 3.3-5.654 5.544-5.654a4.649 4.649 0 0 1 1.517.278 5.874 5.874 0 0 1 3.754 5.849 9.871 9.871 0 0 1-.5 3 7.063 7.063 0 0 1-6.693 5.054zM36.4 40.393a111.035 111.035 0 0 1-.74 11.447 26.006 26.006 0 0 1-9.3 1.487c-5.958 0-12.483-1.4-16.512-4.175-6.39-4.46-8.361-11.617-8.361-18.734A56.926 56.926 0 0 1 7.095 7.152a3.027 3.027 0 0 0 .146-.285 76.476 76.476 0 0 0 9.683.6 80.482 80.482 0 0 0 19.943-2.481l-1.592 12.07c-3.209-.019-11.413-.056-15.025-.146-3.725 0-5.061 2.294-5.061 4.262a4.03 4.03 0 0 0 4.34 4.065 6.882 6.882 0 0 0 .995-.089h6.555v7.261a49.69 49.69 0 0 0-2.617-.072c-.747 0-1.577.019-2.511.053-2.264.075-3.289.758-3.74 1.355a2.077 2.077 0 0 0-.436 1.3 3.433 3.433 0 0 0 2 2.748c1.847 1.081 5.909 1.881 10.032 1.881a25.043 25.043 0 0 0 6.57-.8c.023.502.023 1.013.023 1.519zm194.455 7.569c-.308-.146-.63-.327-1-.54a27.5 27.5 0 0 0 1.972-7.5v-.073l.018-.128-.018-.068c-.455-9.435-3.957-19.8-4.949-22.567 1.322-2.129 5.822-9.286 9.231-12.258a35.557 35.557 0 0 1 3.683 5.632 28.006 28.006 0 0 0 3.417 5.042l.5.469 1.2-.109.435-.54c5.575-6.957 8.721-9.558 11.214-10.388.158-.057.346-.105.5-.146 3 6.776 6.233 22.853 6.233 31.052 0 1.806 0 3.271-.432 3.743-1.5 1.262-5.711 4.963-8.02 7-1.517-3.446-4.663-10.366-5.729-11.016l-.579-.36-1.131.293-.345.579c-1.821 3.034-3.995 6.3-5.219 8.147a39.7 39.7 0 0 0-1.625-4.265c-.853-2.748-1.72-3.848-2.314-4.2a2.062 2.062 0 0 0-1.032-.293c-.934 0-2.147 1.19-3.21 4.3a25.26 25.26 0 0 1-1.1 2.875 773.327 773.327 0 0 1-1.703 5.319zM194.562 29.1c-.739 1.645-1.3 2.951-1.626 3.687a83.06 83.06 0 0 0 4.972 9.161 21.494 21.494 0 0 0 1.928-3.056l.182-.341.6-.394.382-.042a54.55 54.55 0 0 1 5.613-.274 41.636 41.636 0 0 1 5.237.274c3.544.454 3.941 1.682 4.659 3.882.079.255.164.529.255.8.432 1.175.886 2.62 1.213 3.724 2.313-1.231 6.592-3.706 8.938-6.273C222.255 16.8 212.478 8.62 208.4 7.3a2.587 2.587 0 0 0-.706-.146c-3.524-.002-9.985 14.956-13.132 21.946zm13.081-11.128l.683.833c.109.109 2.1 2.384 4.261 11.218l.188.687-.675 1.015-.706.12a55.738 55.738 0 0 1-6.991.529l-.848.016-.867-1.116.254-.818c1.442-4.933 2.6-10.152 2.76-10.929a.369.369 0 0 1 .02-.086l.236-1.047z" fill="#006db0"/><path d="M187.342 32.05c8.194-11.272 11.107-23.049-6.4-25.745-5.416-.739-7.8-.255-13.815-.255 0 8.838-.313 15.211-.313 15.211-3.664.542-5.327 1.052-6.084 5.021 0 0-1.8 12.611.382 23.54 0 0 9.591.523 12.79-.127.522-2.167.12-3.327.9-5.761 0-3.2 8.149 7.276 9.991 9.354 1.409-.394 10.744-6.665 9.975-8.958-.002 0-3.33-5.762-7.426-12.28zm-12.16 9.808c-.815 0-1.79.049-1.861 1.84a13.849 13.849 0 0 0-.579 3.45c-.018.4-.053.8-.109 1.227-1.193.128-2.763.166-4.351.166-2.275 0-4.569-.094-5.929-.147a65.677 65.677 0 0 1-.867-10.985 84.967 84.967 0 0 1 .691-10.82.243.243 0 0 0 .019-.075c.593-3.1 2.019-3.372 4.835-3.766l.563-.09.688-.766.038-.556v-.056c.011-.649.266-5.977.285-13.745 1.25-.019 2.335-.057 3.327-.09 1.1-.019 2.11-.057 3.123-.057a39.533 39.533 0 0 1 5.673.4c8.053 1.224 11.616 4.513 11.616 9.157 0 4.242-2.6 9.285-6.2 14.218l-.286.375-.037.886.274.394a435.107 435.107 0 0 1 7.223 11.961c-.3 1.93-5.853 5.522-8.109 6.7-.2-.232-.413-.507-.669-.8-2.84-3.408-7.897-8.822-9.358-8.822zm-12.771-22.292c1.211-.058 1.517-.707 1.97-1.625a111.558 111.558 0 0 0 .355-14s-18.492-.166-33.7.178c0 0 6.921 7.915 7.806 17.448 2.454-.248 2.326.982 2.632 1.957 2.134 9.552-.07 22.737-.07 22.737 7.08.345 12.61.185 12.61.185s-1.14-19.041 2.454-26.771a55.8 55.8 0 0 1 5.943-.109zm-7.3-.509c-2.283 4.9-2.786 13.82-2.786 20.214 0 2.388.071 4.408.128 5.71-.578 0-1.28.015-2.114.015-1.862 0-4.355-.034-7.228-.143a85.851 85.851 0 0 0 .8-11.286 48.237 48.237 0 0 0-1.011-10.425c-.049-.18-.068-.289-.109-.394-.286-1.231-.608-2.444-2.636-2.658a35.137 35.137 0 0 0-6.12-14.544c6.991-.127 14.21-.158 19.9-.158 4.195 0 7.551.011 9.374.03.02.74.039 1.734.039 2.894a92.006 92.006 0 0 1-.433 9.285.538.538 0 0 1-.483.473c-.207 0-1.033-.019-2.118-.019-1.209 0-2.707.019-3.995.139l-.413.037-.612.455zm52.583-13.383c-4.854-.108-16.382 27.134-16.382 27.134s4.026 8.685 6.518 11.522a20.451 20.451 0 0 0 3.309-4.735 51.969 51.969 0 0 1 10.532 0c3.015.382 2.925 1.535 3.7 3.708.8 2.167 1.662 5.379 1.662 5.379s8.324-4.1 11.49-8.017c-5.349-27.822-17.757-34.991-20.829-34.991zM208.4 7.3c4.077 1.322 13.854 9.5 18.513 32.945-2.346 2.567-6.626 5.042-8.938 6.273a66.732 66.732 0 0 0-1.213-3.724 26.1 26.1 0 0 1-.255-.8c-.717-2.2-1.114-3.428-4.659-3.882a41.636 41.636 0 0 0-5.237-.274 54.55 54.55 0 0 0-5.613.274l-.383.041-.6.394-.182.341a21.494 21.494 0 0 1-1.928 3.056 83.06 83.06 0 0 1-4.972-9.161c.323-.736.886-2.042 1.626-3.687 3.146-6.99 9.607-21.948 13.133-21.948a2.587 2.587 0 0 1 .708.152zm81.97 34.412a2.418 2.418 0 0 0-.574-.452 1.661 1.661 0 0 0 1.045-.5 1.435 1.435 0 0 0 .364-.994 1.552 1.552 0 0 0-.236-.848 1.3 1.3 0 0 0-.631-.51 4.082 4.082 0 0 0-1.249-.14h-2.275v5.365h1.086v-2.248h.218a2.051 2.051 0 0 1 .56.057.655.655 0 0 1 .306.217 6.4 6.4 0 0 1 .581.79l.776 1.179h1.3l-.65-1.05a8.937 8.937 0 0 0-.62-.868zm-1.676-1.191h-.8v-1.36h.847a6.547 6.547 0 0 1 .8.02.715.715 0 0 1 .4.216.629.629 0 0 1 .148.433.723.723 0 0 1-.108.4.581.581 0 0 1-.308.229 4.7 4.7 0 0 1-.978.06zm.109-4.786a5.318 5.318 0 1 0 5.328 5.327 5.327 5.327 0 0 0-5.331-5.329zm0 9.52a4.193 4.193 0 1 1 4.186-4.193 4.195 4.195 0 0 1-4.189 4.191zM257.929 3.163c-2.926.2-6.355 2.02-13.746 11.216-1.841-1.606-6.773-12.426-8.4-11.216-4.1 3.109-10.545 13.765-10.545 13.765s4.6 12.3 5.111 22.794a22.8 22.8 0 0 1-2.423 8.183 15.187 15.187 0 0 0 3.83 2.064s.868-2.606 2.185-6.793c1.753-3.613 2.454-10.387 4.875-2.715 2.657 6.092 3.237 6.092 3.237 6.092s3.595-5.238 6.265-9.718c1.319.81 5.964 12.229 5.964 12.229s7.495-6.615 9.609-8.419c2.947-3.109-1.917-29.586-5.962-37.482zm-26.1 36.757v-.071l.018-.128-.018-.068c-.455-9.435-3.957-19.8-4.949-22.567 1.32-2.129 5.82-9.286 9.229-12.258a35.557 35.557 0 0 1 3.683 5.632 28.006 28.006 0 0 0 3.417 5.042l.5.469 1.2-.109.435-.54c5.575-6.957 8.721-9.558 11.214-10.388.158-.057.346-.105.5-.146 3 6.776 6.233 22.853 6.233 31.052 0 1.806 0 3.271-.432 3.743-1.5 1.262-5.711 4.963-8.02 7-1.517-3.446-4.663-10.366-5.729-11.016l-.579-.36-1.131.293-.345.579c-1.821 3.034-3.995 6.3-5.219 8.147a39.7 39.7 0 0 0-1.625-4.265c-.853-2.748-1.72-3.848-2.314-4.2a2.062 2.062 0 0 0-1.032-.293c-.934 0-2.147 1.19-3.21 4.3a25.26 25.26 0 0 1-1.1 2.875 677.981 677.981 0 0 1-1.7 5.328c-.308-.146-.63-.327-1-.54a27.5 27.5 0 0 0 1.974-7.51zM103.25 7.713c2.511 6.449 1.16 8.583-.127 12.936-2.728 3.881-3.173 5.709 0 9.463a59.375 59.375 0 0 1 5.366 7.176 81.677 81.677 0 0 1-6.9 6.519 36.978 36.978 0 0 0 9.6 3.595c5.239 1.083 10.763 1.064 16.632-3.327 10.641-8.2 12.808-21.635 5.512-31.754-.655-.905-11.781-15.008-30.083-4.608zm13.221 38.8a24.014 24.014 0 0 1-4.982-.581 34.179 34.179 0 0 1-7.246-2.434 83.946 83.946 0 0 0 5.3-5.151c.019-.019.03-.038.049-.056l.364-.375.09-.942-.266-.447a60.011 60.011 0 0 0-5.516-7.374c-1.209-1.427-1.858-2.474-1.858-3.574 0-1.231.758-2.421 1.93-4.085l.075-.09.109-.218.034-.127c.166-.56.323-1.062.488-1.573a17.647 17.647 0 0 0 1.1-5.564 16.549 16.549 0 0 0-1.052-5.5A24.106 24.106 0 0 1 116.314 5.4c9.011 0 14.556 6.221 15.656 7.61a2.161 2.161 0 0 1 .147.176 20.541 20.541 0 0 1 3.991 12.1c0 6.487-3.162 12.952-9.176 17.592a16.893 16.893 0 0 1-10.461 3.638zM20.536 36.511C18.694 35.44 18.567 34 22 33.872a42.764 42.764 0 0 1 6.557.159V23.663s-3.651-.019-8.163 0c-4.678.867-5.149-5.378-.146-5.257 4.39.1 16.346.146 16.346.146L38.64 2.928A80.048 80.048 0 0 1 6.523 5.26C4.446 7.643-8.421 38.224 9 50.384c6.991 4.836 21.189 5.78 28.032 2.472 0 0 1.268-9.865.727-16.059-4.65 2.224-14.183 1.479-17.223-.286zm5.819 16.817c-5.958 0-12.483-1.4-16.512-4.175-6.39-4.46-8.361-11.617-8.361-18.734A56.926 56.926 0 0 1 7.095 7.152a3.027 3.027 0 0 0 .146-.285 76.476 76.476 0 0 0 9.683.6 80.482 80.482 0 0 0 19.943-2.481l-1.592 12.07c-3.209-.019-11.413-.056-15.025-.146-3.725 0-5.061 2.294-5.061 4.262a4.03 4.03 0 0 0 4.34 4.065 6.882 6.882 0 0 0 .995-.089h6.555v7.261a49.69 49.69 0 0 0-2.617-.072c-.747 0-1.577.019-2.511.053-2.264.075-3.289.758-3.74 1.355a2.077 2.077 0 0 0-.436 1.3 3.433 3.433 0 0 0 2 2.748c1.847 1.081 5.909 1.881 10.032 1.881a25.043 25.043 0 0 0 6.57-.8c.019.5.019 1.014.019 1.521a111.035 111.035 0 0 1-.74 11.447 26.006 26.006 0 0 1-9.301 1.485zm45.122-40.772s-9.158-.491-12.7.6c0 0-.14 8.195-1.733 14.013-1.172 4.371-5.129 6.271-7.023 0-.434-5.4.739-13.726.739-13.726s-9.374-.58-11.745.089a47.481 47.481 0 0 0-.267 5.129c-.383 2.963.178 6.3-6.105 4.7l1.173 10.674 5.257.147s-.325 2.256.886 7.156c2.186 11.235 19.85 10.2 26.121-.885 3.033-4.848 5.939-15.865 5.397-27.897zm-1.429 2.926c0 10.494-2.527 19.868-5.238 24.208a16.409 16.409 0 0 1-14.018 8.11c-4.423 0-8.47-2.091-9.394-6.788a31.671 31.671 0 0 1-.848-5.1c-.03-.323-.03-.611-.03-.848a4.035 4.035 0 0 1 .03-.687l.09-.721-.788-.956-.752-.018-3.95-.109-.8-7.374a7.224 7.224 0 0 0 1.063.075c3.848 0 4.43-2.369 4.7-5.439.038-.327.056-.669.109-1.067.018-1.821.109-3.138.165-3.975.886-.091 2.057-.109 3.3-.109 1.937 0 3.995.1 5.384.147a85.708 85.708 0 0 0-.65 9.5c0 1.033.041 2.027.109 2.944l.019.09.018.146.033.072c1.22 4.066 3.21 5.1 4.854 5.1 1.948 0 4.134-1.791 5.02-5.114a64.372 64.372 0 0 0 1.753-13.242 41.1 41.1 0 0 1 6.506-.4c1.281 0 2.452.041 3.319.06v1.5zM294.634 4.788c-10.2-4.263-27.9-1.625-27.9-1.625A53.922 53.922 0 0 0 264 11.257c-.3 5.148 3.958 15.663 3.741 30.128-.344.816-2.242 1.9-3.327 2.836 0 0 6.826.038 8.381-.108a4.89 4.89 0 0 0 3.542-5.959c-1.16-7.047.484-8.093 6.374-11.018 1.878-.962 3.542-1.428 7.874-3.345 8.715-3.74 11.53-15.88 4.049-19.003zm-20.118 29.861a24.123 24.123 0 0 0 .357 3.811 3.342 3.342 0 0 1-2.219 4.175c-.686.071-2.388.09-4.062.109a3.7 3.7 0 0 0 .522-.759l.048-.146.079-.29v-.164a104.981 104.981 0 0 0-2.568-21.877 44.48 44.48 0 0 1-1.195-7.711v-.324a55.681 55.681 0 0 1 2.276-6.953 86.7 86.7 0 0 1 11-.725c5.058 0 10.836.507 15.3 2.362a5.618 5.618 0 0 1 3.409 5.515 12.363 12.363 0 0 1-7.476 10.748c-2.117.935-3.574 1.536-4.756 1.982-1.258.51-2.2.886-3.191 1.393-5.553 2.783-7.524 4.266-7.524 8.854zM105.8 36.6s-3.613-5.041-5.2-7.207c-1.23-1.664-3.039-3.288-.4-6.519 6.939-7.462 3.2-25.6-22-22.526C75.02.6 67.2 1 67.2 1L67 9.4l6.411.147s.273 6.972 0 13.057c-.4 13.331-3.065 17.466-5.468 20.264l-.128 4.263 16.926 1.2 1.338-6.4 7.188 5.87S106.6 39.8 105.8 36.6zm-21.188 5.021l-1.067 5.129c-5.511-.394-11.507-.814-14.2-1.014l.068-2.312a20.092 20.092 0 0 0 1.359-1.84c1.949-3.071 3.792-8.034 4.115-18.925.09-2.1.128-4.265.128-6.222 0-3.536-.109-6.371-.128-6.881v-.072l-.018-.631-.8-.8h-.641l-4.9-.109.109-5.523c2.4-.146 7.265-.417 9.72-.6a42.708 42.708 0 0 1 5.274-.345c12.6 0 18.156 6.706 18.156 13.174a10.679 10.679 0 0 1-2.714 7.238 6.388 6.388 0 0 0-1.735 4.047 6.31 6.31 0 0 0 1.72 3.886c.108.162.229.308.338.454 1.359 1.859 4.065 5.632 4.933 6.826-.376 2.549-7.73 6.848-10.509 8.6a3.1 3.1 0 0 1-.432.267l-6.378-5.2-.74-.6-1.468.522zm31.3-23.356c-2.542-.184-4.57 3.7-4.57 3.7s-2.095 4.622-.521 7.189c1.3 2.148 4.2 3.417 7.73 1.517 5.621-3.012 2.049-12.06-2.639-12.406zm-.72 11.847a3.527 3.527 0 0 1-3.09-1.733 3.231 3.231 0 0 1-.4-1.695 10.764 10.764 0 0 1 .976-4.047v-.019c.018-.019.018-.038.038-.057.249-.453 1.427-2.817 3.141-2.817 2.333.178 4.079 3.326 4.079 5.945a3.957 3.957 0 0 1-2.09 3.665 5.559 5.559 0 0 1-2.654.758zm90.513-10.585c-.158.777-1.318 6-2.76 10.929l-.254.818.867 1.116.848-.016a55.738 55.738 0 0 0 6.991-.529l.706-.12.672-1.014-.188-.687c-2.162-8.834-4.152-11.109-4.261-11.218l-.683-.833-1.683.421-.236 1.047a.369.369 0 0 0-.019.086zm-1.331 11.363c1.537-5.258 2.817-11.146 2.817-11.146s1.912 2.313 3.957 10.623a55.527 55.527 0 0 1-6.774.523zm78.338-15.39a5.874 5.874 0 0 0-3.754-5.849 4.649 4.649 0 0 0-1.517-.278c-2.241 0-4.231 1.791-5.544 5.654a9.312 9.312 0 0 0-.545 3.023 5.39 5.39 0 0 0 3.668 5.414l.127.061.248.03h.127a7.063 7.063 0 0 0 6.688-5.053 9.871 9.871 0 0 0 .502-3.002zm-1.932 2.53a5.578 5.578 0 0 1-5.257 4.047c-2.313-.835-3.358-3.2-2.217-6.577 1.152-3.415 2.847-5.238 5.162-4.441 2.274.809 3.453 3.594 2.312 6.971zm-101.393-2.569l-.127-.068-.249-.06-.146-.011a24.036 24.036 0 0 0-1.84-.075 8.886 8.886 0 0 0-1.232.056l-.612.053-.728.814v.63c-.011.256-.011 1.573-.011 3.649 0 2 0 4.731.011 7.892v.432l.455.709.4.176a2.787 2.787 0 0 0 1.3.312c2.494 0 5.959-4.427 5.959-9a5.643 5.643 0 0 0-3.18-5.509zm-3.427 12.867c-.038-6.615-.019-11.547-.019-11.547a18.011 18.011 0 0 1 2.836.02c5.237 2.44.376 13.063-2.817 11.527zm-85.4-3.85a1.588 1.588 0 0 0 .308-.578 20.831 20.831 0 0 0 .432-4.422c0-2.174-.341-4.483-1.246-5.8a4.538 4.538 0 0 0-3.654-2.37 3.532 3.532 0 0 0-3.345 2.8 16.413 16.413 0 0 0-.777 5.346 16.989 16.989 0 0 0 .341 3.646 2.572 2.572 0 0 0 1.9 2.043.678.678 0 0 1 .18.071l.165.09.375.09h.177a23.839 23.839 0 0 0 3.939-.27 2.1 2.1 0 0 0 1.2-.646zm-6.49-1.751a17.564 17.564 0 0 1 .395-8.132c.727-2.275 2.747-2.492 4.352-.089 1.631 2.383.816 8.7.58 9.03-.255.274-2.441.383-3.977.383-.503-.287-1.096-.219-1.35-1.192z"/></svg>