<svg xmlns="http://www.w3.org/2000/svg" width="174.133" height="33.701" viewBox="0 0 174 33">
    <path fill="#1a1a1a" d="M174.132 5.357a3.709 3.709 0 1 1-3.709-3.709 3.692 3.692 0 0 1 3.709 3.709zm-6.681 0a2.974 2.974 0 1 0 2.972-3.087 3.049 3.049 0 0 0-2.972 3.087zm4.308.783l.357 1.105-.748.254-.357-1.129a1 1 0 0 0-.979-.7h-.172v1.739h-.772v-4.09a5.462 5.462 0 0 1 1.382-.15 1.283 1.283 0 0 1 1.373 1.22 1.126 1.126 0 0 1-.7 1 1.2 1.2 0 0 1 .616.751zm-1.417-1.117a.63.63 0 0 0 .679-.6c0-.346-.253-.61-.771-.61-.139 0-.265.011-.391.011v1.2z" data-name="Path 1"/>
    <path fill="#1a1a1a" d="M94.975 7.227c-1.249-1.092-3.671-1.5-6.537-1.481-.859 0-4.633-.006-4.633-.006h-8.743v27.962h8.72V15.247h.023v-4.47a.987.987 0 0 1 .579-.9 2.3 2.3 0 0 1 1.257-.277 1.961 1.961 0 0 1 1.24.262 1.278 1.278 0 0 1 .534 1.09v5.209a1.091 1.091 0 0 1-.463.884 2.24 2.24 0 0 1-1.11.2v3.836a17.027 17.027 0 0 0 2.533.2 15.481 15.481 0 0 0 4.176-.452 8 8 0 0 0 2.424-1.1 2.445 2.445 0 0 0 .987-1.424 10.183 10.183 0 0 0 .185-2.337l.013-5.407a6.646 6.646 0 0 0-.259-1.972 3.152 3.152 0 0 0-.926-1.362zm12.124 9.1V.001h-8.732V16.52a3.364 3.364 0 0 0 .722 2.222 4.938 4.938 0 0 0 2.216 1.471 13.621 13.621 0 0 0 3.475.7c1.247.112 2.619.166 4.1.166h.088v-3.858a5.97 5.97 0 0 1-1.593-.206.751.751 0 0 1-.276-.687zm-34.613.32v-6.7a2.624 2.624 0 0 0-.7-1.836A5.367 5.367 0 0 0 69.9 6.835a10.637 10.637 0 0 0-2.659-.735 18.72 18.72 0 0 0-2.763-.209c-1.78 0-3.426-.046-4.646-.046l-12.043-.11h-8.732v15.37h8.732V10.977a1.4 1.4 0 0 1 .483-1.153c.176-.121.4-.213 1.351-.228a2.51 2.51 0 0 1 1.278.234.968.968 0 0 1 .506.863l-.01 10.419h8.74V10.977a1.4 1.4 0 0 1 .485-1.153c.176-.121.4-.213 1.351-.228a2.576 2.576 0 0 1 1.278.234.969.969 0 0 1 .5.863v2.387h-.027v3.635c0 .051.017.093.019.14v.408h.057a3.162 3.162 0 0 0 .644 1.676 4.92 4.92 0 0 0 2.217 1.472 13.574 13.574 0 0 0 3.473.7c1.113.1 2.36.136 3.666.147v-3.889a5.767 5.767 0 0 1-1.066-.156.83.83 0 0 1-.247-.565zM33.937 6.863a13.8 13.8 0 0 0-3.414-.973 25.156 25.156 0 0 0-4.073-.315c-.225 0-7.8.021-8.018.026v4.047c.206-.031 7.783-.051 8.018-.051.961.008 1.219.114 1.371.211a1.069 1.069 0 0 1 .466.89v.856c-.092-.005-.177-.01-.258-.013-.5-.018-.981-.029-1.455-.029a35.159 35.159 0 0 0-5.215.322 11.46 11.46 0 0 0-3.567 1.068 4.087 4.087 0 0 0-1.835 1.756 5.338 5.338 0 0 0-.453 2.254 3.155 3.155 0 0 0 .733 2.135 4.982 4.982 0 0 0 1.977 1.371 10.739 10.739 0 0 0 2.649.681 18.239 18.239 0 0 0 2.514.178h.095a16.072 16.072 0 0 0 3.119-.293v-3.421c-.134.008-.22.028-.389.032a2.647 2.647 0 0 1-1.369-.282 1.1 1.1 0 0 1 .277-2.054 9.35 9.35 0 0 1 2.733-.338c.135 0 .283 0 .444.008v6.185h8.74V10.639a3.3 3.3 0 0 0-.824-2.178 6.418 6.418 0 0 0-2.266-1.598zm-16.99-1.289h-1.268a27 27 0 0 0-2.7.126 18.428 18.428 0 0 0-2.362.383 20.2 20.2 0 0 0-1.885.531v-.873H.001v15.37h8.731v-9.016a1.583 1.583 0 0 1 .5-1.205 3.479 3.479 0 0 1 1.214-.758 7.222 7.222 0 0 1 1.62-.407 13.751 13.751 0 0 1 1.732-.13c.5 0 1.156.068 1.553.032l1.6.036zm93.1 15.538h8.732V5.742h-8.732zm30.017-14.4a9.764 9.764 0 0 0-2.544-.746 17.734 17.734 0 0 0-2.724-.209l-4.7-.014h-8.74v15.37h8.74V10.977a1.369 1.369 0 0 1 .485-1.153c.177-.121.4-.213 1.352-.228a2.488 2.488 0 0 1 1.266.234.937.937 0 0 1 .506.863v10.419h8.74v-11.3a2.749 2.749 0 0 0-.628-1.816 4.879 4.879 0 0 0-1.752-1.286zm14.773 4.966V14.8h10.664v-4.218a3.013 3.013 0 0 0-.711-1.938 6.239 6.239 0 0 0-2.072-1.6 13.2 13.2 0 0 0-3.37-1.086 23.112 23.112 0 0 0-4.351-.38 21.4 21.4 0 0 0-5.578.643 9.313 9.313 0 0 0-3.629 1.706 3.212 3.212 0 0 0-1.05 1.476 5.192 5.192 0 0 0-.259 1.685v4.682a5.517 5.517 0 0 0 .247 1.684 3.339 3.339 0 0 0 1.062 1.48 9.444 9.444 0 0 0 3.629 1.709 21.657 21.657 0 0 0 5.578.637h.082a22.449 22.449 0 0 0 4.247-.38 14.1 14.1 0 0 0 3.341-1.058 5.929 5.929 0 0 0 2.122-1.543 2.873 2.873 0 0 0 .711-1.883v-.41h-8.643l-.088.337a1.41 1.41 0 0 1-.547.737c-.082.07-.258.169-1.226.18a3.229 3.229 0 0 1-1.342-.2.649.649 0 0 1-.444-.611v-5.8a.861.861 0 0 1 .486-.822 3.9 3.9 0 0 1 2.587 0 .864.864 0 0 1 .484.822v1.039zm-44.788-7.653h8.732V0h-8.732z" data-name="Path 2"/>
</svg>
